<svg xmlns="http://www.w3.org/2000/svg" width="256" height="256" viewBox="0 0 100 100"><path fill="#4a7bea" d="M19.82 96.70L7.08 96.70L7.08 2.30L19.82 2.30L19.82 43.24L33.57 43.24L33.57 2.30L46.31 2.30L46.31 96.70L33.57 96.70L33.57 54.57L19.82 54.57L19.82 96.70ZM73.81 97.70L73.81 97.70Q64.31 97.70 60.27 93.60Q56.22 89.50 55.87 80.00L55.87 80.00Q55.81 77.88 55.84 75.16Q55.87 72.45 55.99 70.80L55.99 70.80L67.20 70.80Q67.08 74.10 67.11 76.79Q67.14 79.47 67.20 81.30L67.20 81.30Q67.32 85.02 68.94 86.49Q70.56 87.97 73.81 87.97L73.81 87.97Q77.64 87.97 79.32 86.49Q81.00 85.02 81.06 81.30L81.06 81.30Q81.06 78.88 81.09 78.14Q81.12 77.41 81.06 75.16L81.06 75.16Q81.00 72.10 80.09 70.30Q79.18 68.50 76.64 67.73L76.64 67.73L69.68 65.61Q62.66 63.42 59.17 59.50Q55.69 55.58 55.58 47.79L55.58 47.79Q55.58 46.49 55.58 45.31Q55.58 44.13 55.63 42.83L55.63 42.83Q55.69 33.21 59.85 29.06Q64.01 24.90 74.46 24.90L74.46 24.90Q84.07 24.90 88.00 28.94Q91.92 32.98 92.33 42.30L92.33 42.30Q92.39 44.42 92.36 47.17Q92.33 49.91 92.21 51.56L92.21 51.56L80.59 51.56Q80.71 49.32 80.68 45.96Q80.65 42.60 80.59 40.88L80.59 40.88Q80.47 37.40 79.15 36.02Q77.82 34.63 74.46 34.63L74.46 34.63Q70.92 34.63 69.53 36.02Q68.14 37.40 68.08 40.88L68.08 40.88Q67.97 42.60 67.94 43.63Q67.91 44.66 67.97 46.78L67.97 46.78Q68.02 50.09 68.79 52.21Q69.56 54.34 72.69 55.28L72.69 55.28L78.94 56.99Q85.90 58.82 89.41 62.77Q92.92 66.73 92.92 74.51L92.92 74.51Q92.92 75.87 92.89 77.44Q92.86 79.00 92.80 80.36L92.80 80.36Q92.69 89.62 88.38 93.66Q84.07 97.70 73.81 97.70Z"></path></svg>